<svg xmlns="http://www.w3.org/2000/svg" xmlns:xlink="http://www.w3.org/1999/xlink" viewBox="0 0 138.67 158.18"><defs><style>.cls-1{fill:url(#Degradado_sin_nombre_2);}</style><linearGradient id="Degradado_sin_nombre_2" y1="79.09" x2="138.67" y2="79.09" gradientUnits="userSpaceOnUse"><stop offset="0" stop-color="#2ea8d3"/><stop offset="1" stop-color="#941b80"/></linearGradient></defs><title>Realidad Aumentada</title><g id="Capa_2" data-name="Capa 2"><g id="Capa_1-2" data-name="Capa 1"><path class="cls-1" d="M138.67,43.5c0-3.24-1-5.11-3.81-6.69C112.93,24.29,92.74,12.64,73.15,1.2a6.71,6.71,0,0,0-7.69,0C46.82,12.1,26.42,23.89,3.1,37.27A5.32,5.32,0,0,0,.05,42.5c.06,9.08.05,18.32,0,27.25l0,9.3c0,3.15,0,6.31,0,9.47C.08,97.14.09,106,0,114.8a6.37,6.37,0,0,0,3.58,6.3c18.73,10.71,38.63,22.19,62.62,36.14a6.13,6.13,0,0,0,3.09.94,6.3,6.3,0,0,0,3.22-1c23.19-13.47,43.75-25.33,62.85-36.26a5.76,5.76,0,0,0,3.26-5.64C138.54,87.61,138.56,64.8,138.67,43.5Zm-7.14,3.59V111L76.11,79ZM12.58,115.76c2.52-1.48,4.92-2.9,7.34-4.29L34.53,103q16.61-9.57,33.2-19.18c1.29-.75,2-.78,3.06-.14,14,8.14,28.17,16.37,41.92,24.34L128.09,117l.12.08-2.45,1.44-8,4.64-14.93,8.62q-16,9.24-32,18.48c-1.17.68-1.75.89-2.8.28C53.49,142,38.63,133.45,24.26,125.15L10.5,117.21l-.19-.12ZM127.1,41.62c-1.68,1-3.26,2-4.88,2.94l-19.14,11Q87,64.87,71,74.14c-1.34.78-2,.82-3.08.21C53.92,66.21,39.66,58,25.87,50L10.6,41.18a2.29,2.29,0,0,1-.31-.2l5.28-3L29.37,30l6.47-3.74C46.25,20.24,57,14,67.57,7.84a2.87,2.87,0,0,1,3.49,0c14.25,8.32,28.77,16.72,42.81,24.84l13.81,8,.49.3ZM62.54,79,7,111.07V47Z"/></g></g></svg>