<svg xmlns="http://www.w3.org/2000/svg" viewBox="0 0 647.44 647.44"><defs><style>.cls-close{fill:#fff;}</style></defs><title>Cerrar</title><g id="Capa_2" data-name="Capa 2"><g id="Capa_1-2" data-name="Capa 1"><path class="cls-close" d="M555.07,14,323.72,245.34,92.37,14a48.11,48.11,0,0,0-67.83,0L14,24.54a48.11,48.11,0,0,0,0,67.83L245.34,323.72,14,555.07a48.11,48.11,0,0,0,0,67.83l10.55,10.55a48.09,48.09,0,0,0,67.83,0L323.72,402.1,555.07,633.45a48.1,48.1,0,0,0,67.83,0l10.56-10.56a48.1,48.1,0,0,0,0-67.83L402.1,323.72,633.45,92.37a48.09,48.09,0,0,0,0-67.83L622.9,14A48.11,48.11,0,0,0,555.07,14Z"/></g></g></svg>