<svg xmlns="http://www.w3.org/2000/svg" xmlns:xlink="http://www.w3.org/1999/xlink" viewBox="0 0 184.06 106.59"><defs><style>.cls-1{fill:url(#Degradado_sin_nombre_2);}.cls-2{fill:url(#Degradado_sin_nombre_2-2);}.cls-3{fill:url(#Degradado_sin_nombre_2-3);}</style><linearGradient id="Degradado_sin_nombre_2" x1="3.59" y1="52.55" x2="182.08" y2="54.05" gradientUnits="userSpaceOnUse"><stop offset="0" stop-color="#2ea8d3"/><stop offset="1" stop-color="#941b80"/></linearGradient><linearGradient id="Degradado_sin_nombre_2-2" x1="3.59" y1="52.98" x2="182.08" y2="54.48" xlink:href="#Degradado_sin_nombre_2"/><linearGradient id="Degradado_sin_nombre_2-3" x1="3.59" y1="52.22" x2="182.09" y2="53.72" xlink:href="#Degradado_sin_nombre_2"/></defs><title>Codificación</title><g id="Capa_2" data-name="Capa 2"><g id="Capa_1-2" data-name="Capa 1"><path class="cls-1" d="M83.81,101.81q5.32-20,10.61-40l6.91-26.13q3.89-14.61,7.77-29.23c.68-2.56.25-3.76-.61-4.79A3.9,3.9,0,0,0,105.34,0a6.09,6.09,0,0,0-1.29.15c-1.65.37-2.91,1.21-3.69,4.16Q95.2,23.86,90,43.39L84.69,63.52Q83.33,68.67,82,73.81l0,.11c-2.32,8.74-4.72,17.77-7,26.66a5.21,5.21,0,0,0,.78,4.53,3.74,3.74,0,0,0,3,1.48C80.27,106.58,82.55,106.57,83.81,101.81Z"/><path class="cls-2" d="M27.23,31.8l-6.75,4.74C14.73,40.56,8.79,44.72,3,48.87,1.13,50.23,0,52,0,53.52A4.35,4.35,0,0,0,2.14,57C14.62,66,28.3,75.65,44,86.48a4.3,4.3,0,0,0,3.32.83,4.66,4.66,0,0,0,2.93-2h0c1.41-2.07.85-4.51-1.42-6.24-1.62-1.23-3.38-2.44-5.09-3.62-1-.67-2-1.35-2.93-2C35.54,69.66,30.32,66,24.93,62.12L12.5,53.29l13.79-9.74c7.39-5.22,14.37-10.15,21.44-15.2A11.54,11.54,0,0,0,50.29,26a4.32,4.32,0,0,0-.67-5.46,4.1,4.1,0,0,0-3-1.23,5.24,5.24,0,0,0-2.87.92c-4,2.65-8,5.49-11.86,8.24C30.34,29.6,28.79,30.71,27.23,31.8Z"/><path class="cls-3" d="M136.7,87.28a5.13,5.13,0,0,0,3.83-1C156.58,75.17,169.77,65.85,182.05,57a4.37,4.37,0,0,0,2-3.51,5.13,5.13,0,0,0-2.31-4.06c-2.61-1.94-5.42-3.9-7.91-5.64L171.35,42l-8.17-5.76C155.77,31,148.1,25.62,140.49,20.38a5.47,5.47,0,0,0-3.06-1A4.13,4.13,0,0,0,134,21.17c-1.5,2-1,4.66,1.34,6.5.72.57,1.53,1.13,2.39,1.73l1,.69,32.85,23.08-7.4,5.44c-.74.56-1.39,1-2.05,1.5l-7.89,5.52-.46.32c-6,4.17-12.15,8.48-18.25,12.86-2.52,1.8-3.12,4.34-1.58,6.61A4.31,4.31,0,0,0,136.7,87.28Z"/></g></g></svg>