<svg xmlns="http://www.w3.org/2000/svg" xmlns:xlink="http://www.w3.org/1999/xlink" viewBox="0 0 658.79 750.45"><defs><style>.cls-i1o2,.cls-5a{fill:none;}.cls-2123ss{fill:url(#Degradado_sin_nombre_2);}.cls-3333{fill:#fff;}.cls-44444{clip-path:url(#clip-path);}.cls-5a{stroke-miterlimit:10;stroke:url(#Degradado_sin_nombre_2-2);}</style><linearGradient id="Degradado_sin_nombre_2" x1="0.5" y1="327.5" x2="654.5" y2="327.5" gradientUnits="userSpaceOnUse"><stop offset="0" stop-color="#2ea8d3"/><stop offset="1" stop-color="#941b80"/></linearGradient><clipPath id="clip-path"><rect class="cls-i1o2" x="0.5" y="0.5" width="654" height="654"/></clipPath><linearGradient id="Degradado_sin_nombre_2-2" x1="0" x2="655" xlink:href="#Degradado_sin_nombre_2"/></defs><title>Cuenta_2</title><g id="Capa_2" data-name="Capa 2"><g id="Capa_1-2" data-name="Capa 1"><rect class="cls-2123ss" x="0.5" y="0.5" width="654" height="654"/><path class="cls-3333" d="M329.94,40.12h-1A176.72,176.72,0,0,0,152.66,215.9c-.08,46.83,18.43,91.12,52.17,124.7,33.47,33.31,78.12,51.48,123.55,51.26h.32c45.65,2.92,90.29-18,123.87-51.39s52.07-77.39,52.1-123.92C504.75,119.8,426.36,40.66,329.94,40.12Z"/><g class="cls-44444"><path class="cls-3333" d="M658.79,656.15c-7.82-43-23.16-86.62-47.12-126.24a328.58,328.58,0,0,0-67.62-79.67,339.62,339.62,0,0,0-45.35-33c-.24.22-.51.43-.75.65-27.08,22.2-56.28,38.49-86.84,48.45-30.72,10-63.27,14.13-96.66,12.62a255.75,255.75,0,0,1-74.34-14.69,259.06,259.06,0,0,1-81.54-47,337,337,0,0,0-97,88.45A324.74,324.74,0,0,0,6.76,622.93c-3.4,14-6.21,25.55-6.18,36.34l217.54,91.18H562.56Z"/></g><rect class="cls-5a" x="0.5" y="0.5" width="654" height="654"/></g></g></svg>