<svg xmlns="http://www.w3.org/2000/svg" xmlns:xlink="http://www.w3.org/1999/xlink" viewBox="0 0 686 721.79"><defs><style>.cls01-1,.cls01-5{fill:none;}.cls01-2{fill:url(#Degradado_sin_nombre_2);}.cls01-3{fill:#fff;}.cls01-4{clip-path:url(#clip-path);}.cls01-5{stroke-miterlimit:10;stroke:url(#Degradado_sin_nombre_2-2);}</style><linearGradient id="Degradado_sin_nombre_2" x1="0.5" y1="343" x2="685.5" y2="343" gradientUnits="userSpaceOnUse"><stop offset="0" stop-color="#2ea8d3"/><stop offset="1" stop-color="#941b80"/></linearGradient><clipPath id="clip-path"><circle class="cls01-1" cx="343" cy="343" r="342.5"/></clipPath><linearGradient id="Degradado_sin_nombre_2-2" x1="0" x2="686" xlink:href="#Degradado_sin_nombre_2"/></defs><title>Cuenta_1</title><g id="Capa_2" data-name="Capa 2"><g id="Capa_1-2" data-name="Capa 1"><circle class="cls01-2" cx="343" cy="343" r="342.5"/><path class="cls01-3" d="M350.15,85.62h-.87A158.29,158.29,0,0,0,191.37,243.05c-.07,41.94,16.52,81.61,46.73,111.69,30,29.83,70,46.1,110.65,45.9H349c40.88,2.61,80.86-16.1,110.94-46s46.63-69.3,46.66-111C506.71,157,436.5,86.11,350.15,85.62Z"/><g class="cls01-4"><path class="cls01-3" d="M644.67,637.34c-7-38.48-20.74-77.58-42.21-113.06a294.26,294.26,0,0,0-60.55-71.36,305.2,305.2,0,0,0-40.62-29.53l-.67.58c-24.25,19.89-50.41,34.47-77.77,43.39a242.51,242.51,0,0,1-86.57,11.31,229.08,229.08,0,0,1-66.58-13.16,232.22,232.22,0,0,1-73-42.09,301.6,301.6,0,0,0-86.91,79.21,291,291,0,0,0-49.05,105c-3.05,12.49-5.56,22.88-5.54,32.55L250,721.79H558.48Z"/></g><circle class="cls01-5" cx="343" cy="343" r="342.5"/></g></g></svg>