<svg xmlns="http://www.w3.org/2000/svg" xmlns:xlink="http://www.w3.org/1999/xlink" viewBox="0 0 147.05 134.5"><defs><style>.cls-1{fill:url(#Degradado_sin_nombre_2);}</style><linearGradient id="Degradado_sin_nombre_2" y1="67.25" x2="147.05" y2="67.25" gradientUnits="userSpaceOnUse"><stop offset="0" stop-color="#2ea8d3"/><stop offset="1" stop-color="#941b80"/></linearGradient></defs><title>Diseño 3D</title><g id="Capa_2" data-name="Capa 2"><g id="Capa_1-2" data-name="Capa 1"><path class="cls-1" d="M143.82,19.64l-15.29-4.42C111.53,10.31,94,5.23,76.58.38a12.31,12.31,0,0,0-6.26,0c-16,4.48-32.3,9.16-48,13.68l-.15.05L3.06,19.64a3.67,3.67,0,0,0-3.06,4V62.86H.11V79q0,15.2,0,30.39c0,3.88.15,4.07,3.72,5.12,20.91,6.14,44.61,13.1,68.12,19.83a7.45,7.45,0,0,0,3.68-.22c14.6-4.16,29.44-8.46,43.79-12.62l.19,0L141.88,115c5.11-1.47,5.11-1.47,5.11-6.79,0-29,0-58.64.06-84.1C147.06,21.23,146.45,20.39,143.82,19.64ZM70.36,102l0,19a5,5,0,0,1-.33,1.76c0,.12-.07.24-.12.39l-1.11,3.8-6.5-1.82c-2-.55-3.9-1.09-5.84-1.65l-15.26-4.41q-14.54-4.22-29.07-8.41c-1.8-.51-6-1.72-6-7.26.09-17.16.08-34.59.08-51.45V34.77c0-.49,0-1,.09-1.54l0-.18c0-.23,0-.49.07-.79l.36-4.89,13,3.7c5.81,1.65,11.49,3.26,17.16,4.89l11.76,3.42.67.2q7.74,2.27,15.48,4.49c1.39.4,5.63,1.61,5.61,7C70.39,68,70.37,85.3,70.36,102Zm2.91-62.55a10,10,0,0,1-2.73-.36c-10.92-3.06-21.87-6.25-32.47-9.33l-7.65-2.23a9.34,9.34,0,0,1-1.52-.62l-1.16-.53L17.75,22l10.5-3.05q5.61-1.62,11-3.14C48,13.3,56.09,11,64.19,8.38a29.76,29.76,0,0,1,19.32.21C90.68,11,98.09,13,105.27,15l.38.11q4.57,1.28,9.14,2.59c.74.21,1.47.46,2.34.75l10.57,3.45-8.55,4.38-.74.4a9.24,9.24,0,0,1-2,.91l-3.85,1.11c-11.46,3.33-23.32,6.78-35,10.08A16,16,0,0,1,73.27,39.47Zm67.49,63.75h0c0,2.33-1.67,6-4.68,6.94-15.91,4.76-32.56,9.57-47.26,13.83l-5.73,1.66a5.33,5.33,0,0,1-1.47.2l-.48,0-.51,0h-4v-23q0-25.46,0-50.92c0-1.71,0-6.28,5.36-7.79,12.24-3.45,24.94-7.11,36.15-10.33l.74-.22,14.48-4.16a11.1,11.1,0,0,1,2-.36l.9-.13,4.61-.71V78.3C140.86,86.45,140.87,94.88,140.76,103.22Z"/></g></g></svg>