<svg xmlns="http://www.w3.org/2000/svg" xmlns:xlink="http://www.w3.org/1999/xlink" viewBox="0 0 169.24 150.85"><defs><style>.cls-1{fill:url(#Degradado_sin_nombre_2);}.cls-2{fill:url(#Degradado_sin_nombre_2-2);}.cls-3{fill:url(#Degradado_sin_nombre_2-3);}</style><linearGradient id="Degradado_sin_nombre_2" x1="-1.62" y1="75.42" x2="167.99" y2="75.42" gradientUnits="userSpaceOnUse"><stop offset="0" stop-color="#2ea8d3"/><stop offset="1" stop-color="#941b80"/></linearGradient><linearGradient id="Degradado_sin_nombre_2-2" x1="-1.62" y1="103.76" x2="167.99" y2="103.76" xlink:href="#Degradado_sin_nombre_2"/><linearGradient id="Degradado_sin_nombre_2-3" x1="-1.62" y1="101.99" x2="167.99" y2="101.99" xlink:href="#Degradado_sin_nombre_2"/></defs><title>Electrónico</title><g id="Capa_2" data-name="Capa 2"><g id="Capa_1-2" data-name="Capa 1"><path class="cls-1" d="M90.1,150.85q.41-24.3.82-48.6C91.3,80,91.71,57.82,92,35.6c.08-5.87-2.85-9.65-8.35-9.84-10.24-.34-20.5-.1-30.85-.1C48,38.16,39.25,44.05,28.15,42,18.53,40.2,11.29,31.44,11.09,21.32A21.33,21.33,0,0,1,27.58.5,20.29,20.29,0,0,1,41.65,2.37C48.59,6,52.09,12.08,53.24,19.69c1.09,0,1.88,0,2.68,0,9.16.14,18.34-.06,27.47.51,8.91.56,13.85,6.25,14,15,0,1.51,0,3,0,4.53q-.63,34.41-1.26,68.83-.36,21.14-.66,42.26ZM47.72,21.36A15.61,15.61,0,1,0,32.09,36.81,15.7,15.7,0,0,0,47.72,21.36Z"/><path class="cls-2" d="M78,150.85q.52-28.68,1-57.36c.12-7.25-2.65-11-9.27-11.23-9.64-.36-19.3-.09-29-.09-5.41,13-13.5,18.56-24,16.5A21,21,0,0,1,0,77.82c0-9.88,6.94-18.74,16.18-20.69A19.69,19.69,0,0,1,29.4,58.79c7.14,3.59,10.35,10,11.84,17.8,8.67,0,17.22.08,25.77,0,10.91-.14,17.59,5.94,17.27,17.23-.55,19-.58,38-.83,57.05ZM20.35,93.46A15.4,15.4,0,0,0,35.69,77.79a15.58,15.58,0,0,0-15.1-15.65C12.15,62,5.36,69,5.3,77.87A15.26,15.26,0,0,0,20.35,93.46Z"/><path class="cls-3" d="M115.25,72.59c6.13,0,12.27.13,18.41,0,2.22,0,3.24.57,3.92,2.92,2.49,8.46,12.56,13.39,20.59,10.35,8.71-3.29,13.38-13.5,9.93-21.71-3.16-7.52-9.38-11.62-16.59-10.95-7.59.71-13,6.12-15,15.09-2.39,0-4.86,0-7.33,0-5.33,0-10.67-.26-16-.1-6.83.21-11,4.66-11.15,12.1-.27,10.46-.35,20.93-.4,31.4q-.08,19.55-.05,39.08h4.24q.07-34.64.16-69.29C106,74.87,108.5,72.55,115.25,72.59Zm25.49-2.23c0-7.14,5.36-12.81,12.09-12.88,6.53-.07,12.26,5.75,12.22,12.4,0,6.93-5.75,12.77-12.37,12.64C146.45,82.39,140.71,76.54,140.74,70.36Z"/></g></g></svg>