<svg xmlns="http://www.w3.org/2000/svg" xmlns:xlink="http://www.w3.org/1999/xlink" viewBox="0 0 157.81 173.42"><defs><style>.cls-1{fill:url(#Degradado_sin_nombre_2);}.cls-2{fill:url(#Degradado_sin_nombre_2-2);}</style><linearGradient id="Degradado_sin_nombre_2" y1="86.71" x2="157.81" y2="86.71" gradientUnits="userSpaceOnUse"><stop offset="0" stop-color="#2ea8d3"/><stop offset="1" stop-color="#941b80"/></linearGradient><linearGradient id="Degradado_sin_nombre_2-2" x1="64.77" y1="85.91" x2="91.51" y2="85.91" xlink:href="#Degradado_sin_nombre_2"/></defs><title>Ciencias</title><g id="Capa_2" data-name="Capa 2"><g id="Capa_1-2" data-name="Capa 1"><path class="cls-1" d="M0,53.11V49.42a5.9,5.9,0,0,0,.2-.83,12.69,12.69,0,0,1,3.87-8c4.24-4.24,9.59-5.7,15.28-6.29a67.33,67.33,0,0,1,18.31.93c3.8.66,7.58,1.4,11.36,2.17.9.19,1.25-.12,1.46-.91s.51-1.8.77-2.7a76.26,76.26,0,0,1,9.21-20.92C64.38,7,68.91,1.7,76.3,0h4.77a26.18,26.18,0,0,1,3.42,1c4.77,2,8.32,5.5,11.33,9.62,4.4,6,7.18,12.82,9.56,19.81.8,2.35,1.53,4.71,2.3,7.1a4.35,4.35,0,0,0,.52,0c.71-.11,1.42-.21,2.13-.36,6.47-1.29,12.91-2.71,19.53-3,5.9-.29,11.7.1,17.26,2.24C151.77,38.13,155.4,41,157,46c.37,1.12.55,2.31.81,3.46v3.69a2.66,2.66,0,0,0-.18.61,26,26,0,0,1-2.29,8.19c-3.14,7.17-7.94,13.2-13.1,19-1.75,2-3.55,3.88-5.38,5.87l1,1.09c3.49,4,7.11,8,10.43,12.14a45.06,45.06,0,0,1,8.52,15.69c.45,1.58.68,3.23,1,4.85v3.68a6.25,6.25,0,0,0-.2.83A13,13,0,0,1,154,132.6c-3.62,4-8.33,5.59-13.43,6.34-8.22,1.21-16.34.23-24.41-1.37-2.55-.51-5.09-1-7.64-1.48-.54-.1-.93-.1-1.12.61a95.82,95.82,0,0,1-7.88,20.35c-2.77,5.12-6,9.88-10.92,13.24-1.74,1.2-3.69,2.09-5.55,3.13H74.79c-1.31-.68-2.66-1.31-3.93-2-5-2.92-8.51-7.3-11.41-12.2a90.11,90.11,0,0,1-8-18.79c-.49-1.57-1-3.14-1.39-4.46-5.38,1-10.6,2.08-15.87,2.86a54.35,54.35,0,0,1-19.16-.28,21,21,0,0,1-10.49-5.05c-2-1.92-3.76-4.07-4.12-6.94A26.38,26.38,0,0,1,2.39,111.6,72.41,72.41,0,0,1,14.12,94.28c2.22-2.52,4.5-5,6.8-7.52-.49-.54-1-1-1.39-1.55C16.7,82,13.8,78.9,11.08,75.62c-4.28-5.17-7.9-10.77-9.9-17.25C.65,56.66.38,54.86,0,53.11ZM49.69,87.19h-.34c.13,4.91.28,9.82.38,14.73a1.83,1.83,0,0,0,1,1.65,254.81,254.81,0,0,0,27.49,15.58,1.79,1.79,0,0,0,1.38,0,257.4,257.4,0,0,0,27.68-15.69A1.56,1.56,0,0,0,108,102c0-9.64.06-19.28.06-28.92a3.92,3.92,0,0,0-1.83-3.75A282.1,282.1,0,0,0,80,54.62a2.46,2.46,0,0,0-2.45,0c-2.93,1.56-5.93,3-8.81,4.63C63,62.57,57.27,66,51.49,69.38a3.43,3.43,0,0,0-1.8,3.29C49.7,77.51,49.69,82.35,49.69,87.19Zm53-48a1.89,1.89,0,0,0,0-.36c-2.19-7.8-4.82-15.43-9-22.42-2.15-3.58-4.6-6.92-8.12-9.31a11.47,11.47,0,0,0-14.15.56,33.65,33.65,0,0,0-7.74,9.39c-3.61,6.1-5.89,12.75-8,19.47-.27.88-.48,1.78-.71,2.64.24.12.34.18.44.22,7.68,2.93,15.35,5.88,23,8.78a2.12,2.12,0,0,0,1.42-.09c3.54-1.44,7-3,10.61-4.37C94.52,42.14,98.6,40.71,102.73,39.19Zm-78,51c-2.64,2.86-5.28,5.62-7.8,8.49-4.35,5-8.15,10.33-10.46,16.58A22.84,22.84,0,0,0,5,121.1c-.46,5.55,2,9.28,7.24,11.38a32.8,32.8,0,0,0,11.9,1.92,84.11,84.11,0,0,0,21.91-3c3.21-.82,2.65-.35,2.15-3.33-1.17-7-2.52-14-3-21.19a2.35,2.35,0,0,0-.88-1.45c-4.63-3.57-9.31-7.07-13.94-10.63C28.51,93.35,26.68,91.78,24.71,90.18Zm-.07-6.73.67-.5c6.41-5,12.82-10,19.2-15a2.73,2.73,0,0,0,.76-1.63c.67-5,1.25-9.94,1.94-14.9.34-2.46.83-4.9,1.25-7.35.15-.88,0-1.53-1.06-1.69s-1.89-.45-2.84-.66c-7.88-1.74-15.8-3.11-23.91-2.48a24.49,24.49,0,0,0-9.89,2.55c-3,1.63-5.13,4-5.66,7.47A17.42,17.42,0,0,0,6.27,58a45.43,45.43,0,0,0,7.65,13.14C17.36,75.33,21.05,79.33,24.64,83.45ZM133,90.28c-3.81,3.07-7.5,6.09-11.25,9-2.58,2-5.25,3.93-7.91,5.87a2.8,2.8,0,0,0-1.34,2.64,14,14,0,0,1-.28,3c-.93,6.09-1.89,12.18-2.83,18.27-.25,1.6-.25,1.65,1.35,2.05a94.32,94.32,0,0,0,21.13,3.27,34.28,34.28,0,0,0,13.61-1.94c5.49-2.16,8.1-6.44,7.17-12.2a27.92,27.92,0,0,0-1.84-6.42C146.81,104.54,140,97.3,133,90.28ZM55.05,134.34c.05.29.08.54.14.78a95.45,95.45,0,0,0,6.94,18.5c2.31,4.48,5,8.69,9,11.95,4.78,3.94,10.07,4.11,15.08.42a29,29,0,0,0,7.47-8.75,87.88,87.88,0,0,0,8-18.67c.45-1.39.85-2.8,1.29-4.26-2.06-.71-4-1.3-5.86-2Q88.6,129,80.22,125.68a3.44,3.44,0,0,0-2.89,0c-3.31,1.44-6.63,2.83-10,4.13C63.3,131.39,59.22,132.82,55.05,134.34ZM133,83.28c5.38-5.38,10.51-10.86,14.53-17.26,2.59-4.12,4.7-8.44,5.25-13.38a10.37,10.37,0,0,0-5.85-11,25.89,25.89,0,0,0-10.47-2.4c-8.9-.59-17.54,1-26.11,3.16-.9.23-1.18.64-1,1.51.33,1.84.67,3.69.94,5.54.77,5.17,1.66,10.33,2.16,15.53a5.1,5.1,0,0,0,2.41,4.09c3.42,2.43,6.76,5,10.07,7.53C127.58,78.76,130.21,81,133,83.28ZM28.72,86.51v.54l15.63,12.4V74Zm100.48.41a164.68,164.68,0,0,0-15.76-12.65V99.46ZM50.39,63.54l.36.1,21.77-12.3a141.08,141.08,0,0,0-19-7.14C52.46,50.78,51.43,57.16,50.39,63.54Zm56.93,46.17-21.93,12.4a4,4,0,0,0,.55.34,122.47,122.47,0,0,0,17.17,6.47c.72.21,1,0,1.17-.77.77-4.58,1.59-9.15,2.36-13.73C106.89,112.94,107.07,111.46,107.32,109.71Zm0-45.91A181.25,181.25,0,0,0,104,44.34a134.49,134.49,0,0,0-18.72,7ZM50.5,109.73c.17,1.31.27,2.38.45,3.44.83,4.93,1.68,9.86,2.5,14.8.15.93.55,1.21,1.46.88,4.4-1.59,8.82-3.13,13.21-4.74,1.45-.53,2.84-1.21,4.42-1.9Z"/><path class="cls-2" d="M64.77,85.75c.23-5.8,4.38-11.2,10-12.32,7.13-1.42,13,1.32,16,7.68a11.63,11.63,0,0,1,.61,6.29c-1.06,9.7-12.68,14.65-20.82,8.93a12.76,12.76,0,0,1-4.87-6.07A30.25,30.25,0,0,1,64.77,85.75Z"/></g></g></svg>