<svg xmlns="http://www.w3.org/2000/svg" viewBox="0 0 21 20.99"><defs><style>.cls-112312{fill:#fff;}</style></defs><g id="Layer_2" data-name="Layer 2"><g id="Capa_1" data-name="Capa 1"><path class="cls-112312" d="M9.72,0l.9.12a8.59,8.59,0,0,1,3.62,1.4,9,9,0,0,1,3.91,5.69,9,9,0,0,1-1.5,7.3c0,.05-.07.11-.13.2l1,1,3.06,3a1.24,1.24,0,0,1,.32,1.3A1.26,1.26,0,0,1,20,21s-.05,0-.08,0h-.41a1.64,1.64,0,0,1-.82-.5c-1.28-1.3-2.57-2.58-3.86-3.87l-.09-.08c-.35.22-.7.45-1.06.65a8.78,8.78,0,0,1-3.22,1.09,8.69,8.69,0,0,1-3-.08A9.23,9.23,0,0,1,3.9,16.69,9.13,9.13,0,0,1,.08,10.36,9.15,9.15,0,0,1,4.81,1.11a9,9,0,0,1,3.07-1L8.65,0Zm6,9.22a6.56,6.56,0,1,0-6.57,6.52A6.54,6.54,0,0,0,15.74,9.22Z"/></g></g></svg>