<svg xmlns="http://www.w3.org/2000/svg" xmlns:xlink="http://www.w3.org/1999/xlink" viewBox="0 0 474.58 450.76"><defs><style>.cls-zxcd1231{fill:url(#Degradado_sin_nombre_2);}</style><linearGradient id="Degradado_sin_nombre_2" y1="225.38" x2="474.58" y2="225.38" gradientUnits="userSpaceOnUse"><stop offset="0" stop-color="#2ea8d3"/><stop offset="1" stop-color="#941b80"/></linearGradient></defs><title>Engrane_configuración</title><g id="Capa_2" data-name="Capa 2"><g id="Capa_1-2" data-name="Capa 1"><path class="cls-zxcd1231" d="M401.75,367.45a59,59,0,0,0-9.89-20.06c-4.41-6.07-3.21-11-.59-17.43,2.76-6.8,10-9.75,11.81-17.14,4.2-16.79,9.08-20.51,25.78-21.67,3.95-.27,7.93-.37,11.82-1,20.66-3.44,34.22-20.87,33.89-41.92-.25-16.53,0-33.17-.5-49.61-.38-12.53-1.52-26.66-15.05-35.87-10.37-7.06-20.5-11.39-32.7-10s-20.31-2.11-24.81-14.38a60.25,60.25,0,0,0-11.7-19.11c-7.79-8.63-7.67-16.49-.95-25.22a40.81,40.81,0,0,0,3.42-6.24c9.36-18.07,6-38.79-10.25-51A247.54,247.54,0,0,0,318.8,2.14c-14.68-5.4-36.91-.34-42.37,12.54C266.91,37.15,251.8,40.44,229.5,40.8c-18,.29-28.12-3.77-34.27-19.69a13.21,13.21,0,0,0-1-2.13c-5.82-9.55-26-20.24-35.94-17.5-29.07,8-52,27-76.14,43.83-.91.63-1.33,1.94-2,2.92C68.76,64.76,68.88,81.63,79.92,98c7.18,10.61,6.9,20.06-.31,30.29a99.42,99.42,0,0,0-9.71,17.63C65.52,156,59.24,160.25,47.29,160.14c-15.38-.15-31.66,1.58-40,20.09-5.3,6.85-6.25,15.87-7,25.6C-.61,218.6.79,231.25.17,244-1.1,270,7.86,287,30.1,296c9.64,3.89,20,4.13,30,3.5,5.89-.38,7.44,2.13,9.7,6.05,6.21,10.72,9,23.34,17.5,32.7,4.86,5.38,4.87,9.89.8,15.41-2.1,2.84-3.47,6.21-5.14,9.36-10.53,19.9-4.7,42.94,14.74,54.51,17.33,10.33,35.22,19.74,53,29.3,10.86,5.83,21.84,4.35,33.25.67,13.87-4.48,18.5-16.5,25-27.28,2-3.29,2.1-8.31,8.63-8,9.36.48,19.08.79,28.12-1.21,14.77-3.29,21.72,2.76,30.61,14.48,18.33,24.18,32,29,56.85,17.52,18.54-8.57,35.79-20.2,52.85-31.59C401.91,400.84,406.46,385.87,401.75,367.45ZM187.81,307.58c-47.05-28.89-56.95-87.17-32.53-131.18,23.26-41.92,82.86-59.93,128.66-34.76,43.1,23.7,65.27,84.59,36.72,130.64C297.32,322.05,228.8,332.75,187.81,307.58Z"/></g></g></svg>