<svg xmlns="http://www.w3.org/2000/svg" xmlns:xlink="http://www.w3.org/1999/xlink" viewBox="0 0 191.8 82.72"><defs><style>.cls-1{fill:url(#Degradado_sin_nombre_2);}.cls-2{fill:url(#Degradado_sin_nombre_2-2);}</style><linearGradient id="Degradado_sin_nombre_2" y1="41.36" x2="191.8" y2="41.36" gradientUnits="userSpaceOnUse"><stop offset="0" stop-color="#2ea8d3"/><stop offset="1" stop-color="#941b80"/></linearGradient><linearGradient id="Degradado_sin_nombre_2-2" x1="69.76" y1="15.67" x2="122.38" y2="15.67" xlink:href="#Degradado_sin_nombre_2"/></defs><title>Realidad Virtual</title><g id="Capa_2" data-name="Capa 2"><g id="Capa_1-2" data-name="Capa 1"><path class="cls-1" d="M143.5,82.61c-10.1,0-20.21-.13-30.31.08-3.54.07-5.92-1-7.21-4.28-.08-.2-.27-.37-.35-.58-2.07-5.73-6-7.68-12.09-7.06-3.65.37-6.05,1.69-6.9,4.83-1.61,5.93-5.21,7.23-11,7.12-19.29-.38-38.6-.16-57.9-.14C8.47,82.59.27,75.05.16,65.8,0,49.91-.08,34,.2,18.12.41,6.33,10-1,22.71.1c8.11.69,16.28,0,24.4.19C53.9.45,60.67.1,67.46.36c7.23.28,14.47,0,21.71-.07,6.56,0,13.12-.2,19.67-.06,8,.16,16.06-.12,24.07.06,6.78.15,13.56-.23,20.35.08s13.41.72,20,0c8-.87,18.31,7.18,18.4,16.37.17,16.23.21,32.47,0,48.7-.16,10.16-7.53,17-17.81,17.14-5.1.08-10.21,0-15.32,0Zm41.28-41.12h0c0-7.72,0-15.43,0-23.15,0-5.71-3.82-10.47-8.92-10.71-10.39-.48-20.79-.47-31.2-.22-6.67.17-13.35,0-20-.07-7,0-14-.13-21-.16-7.68,0-15.36,0-23,0-6.67,0-13.35,0-20,0-7,0-14,.49-21,.15s-13.79.07-20.69-.11C11.73,7.06,7.26,11.32,7.16,17.88c-.25,16-.2,32-.08,48,0,4.6,4,9.35,8.23,9.58,5.3.29,10.61.8,16,.61,7.22-.26,14.46.1,21.69-.11,7.69-.22,15.38.52,23.07-.21,1.87-.18,3.31-.86,4-2.62,3.09-7.69,8.87-10.39,16.81-9.22a5.63,5.63,0,0,0,1.36,0c5.73-.63,9.12,2.5,11.57,7.16.58,1.1,1.16,2.21,1.77,3.29a2.87,2.87,0,0,0,3,1.74c5.66-1,11.3.29,17,0a173.34,173.34,0,0,1,20-.17c7.14.41,14.26,0,21.38.1,7.68.11,11.71-4.56,11.8-12.36C184.85,56.24,184.78,48.86,184.78,41.49Z"/><path class="cls-2" d="M96.24,12.3h20.42c.68,0,1.37-.05,2,0,2.22.16,3.81,1.24,3.67,3.58-.14,2.17-1.83,3-3.86,3-10.74-.09-21.47-.15-32.21-.34-4.29-.08-8.56,1.08-12.88.11-1.92-.44-3.7-.94-3.66-3.24,0-2.51,1.91-3.11,4-3.12,7.49,0,15,0,22.46,0Z"/></g></g></svg>