<svg xmlns="http://www.w3.org/2000/svg" viewBox="0 0 539.21 110.66"><defs></defs><title>Recurso 2</title><g id="Capa_2" data-name="Capa 2"><g id="Capa_1-2" data-name="Capa 1"><path class="cls-1" d="M55.71,27.51q6.23,7.05,6.22,19.36V82.51H43.12V49.07q0-6.15-3.24-9.62A11.3,11.3,0,0,0,31.24,36a11.74,11.74,0,0,0-9.07,3.63Q18.81,43.24,18.81,50V82.51H0V21.13H18.81V32.35a20.31,20.31,0,0,1,7.86-8.69,23.17,23.17,0,0,1,12.27-3.19Q49.5,20.47,55.71,27.51Z"/><path class="cls-1" d="M173,64.14l13.31-43h20L184.58,82.51H161.26L139.48,21.13h20Z"/><path class="cls-1" d="M249.59,23.55a19.29,19.29,0,0,1,7.48,8.69V21.13h18.7V82.51h-18.7V71.4a19.19,19.19,0,0,1-7.48,8.69,22.22,22.22,0,0,1-12.1,3.19,24.88,24.88,0,0,1-13.59-3.79,25.94,25.94,0,0,1-9.46-10.95A37.91,37.91,0,0,1,211,51.82a37.83,37.83,0,0,1,3.46-16.77,26,26,0,0,1,9.46-10.89,24.89,24.89,0,0,1,13.59-3.8A22.3,22.3,0,0,1,249.59,23.55ZM233.8,40.82q-3.69,4-3.68,11t3.68,11a13.81,13.81,0,0,0,19.47-.11q3.79-4.07,3.8-10.89t-3.8-10.94a13.87,13.87,0,0,0-19.47-.06Z"/><path class="cls-1" d="M375.37,23a26.09,26.09,0,0,1,9.46,10.9,37.83,37.83,0,0,1,3.46,16.77,37.94,37.94,0,0,1-3.46,16.72,25.94,25.94,0,0,1-9.46,10.95,24.87,24.87,0,0,1-13.58,3.79A22.23,22.23,0,0,1,349.68,79a18.54,18.54,0,0,1-7.37-8.69v40.37H323.5V20h18.81V31.13a18.54,18.54,0,0,1,7.37-8.69,22.23,22.23,0,0,1,12.11-3.19A25,25,0,0,1,375.37,23ZM346,39.77q-3.79,4-3.79,10.94T346,61.6a13.81,13.81,0,0,0,19.47.11q3.69-4,3.69-11t-3.69-11a13.87,13.87,0,0,0-19.47.06Z"/><path class="cls-1" d="M416.89,0V81.4H398.08V0Z"/><path class="cls-1" d="M465.29,22.44a19.12,19.12,0,0,1,7.48,8.69V20h18.7V81.4h-18.7V70.29A19.12,19.12,0,0,1,465.29,79a22.19,22.19,0,0,1-12.1,3.19,24.82,24.82,0,0,1-13.58-3.79,25.94,25.94,0,0,1-9.46-10.95,37.94,37.94,0,0,1-3.47-16.72,37.83,37.83,0,0,1,3.47-16.77A26.09,26.09,0,0,1,439.61,23a24.91,24.91,0,0,1,13.58-3.79A22.19,22.19,0,0,1,465.29,22.44ZM449.51,39.71q-3.69,4-3.69,11t3.69,11A13.81,13.81,0,0,0,469,61.6q3.79-4.07,3.79-10.89T469,39.77a12.8,12.8,0,0,0-9.74-4A12.65,12.65,0,0,0,449.51,39.71Z"/><path class="cls-1" d="M539.21,65.23V81.4h-8.47Q520,81.4,514,76.07t-6-17.66V35.86h-8.25V20H508V5h18.81V20H539.1V35.86H526.78V58.74q0,3.63,1.49,5.06c1,1,2.65,1.43,5,1.43Z"/><circle class="cls-1" cx="300.24" cy="53.59" r="14.62"/><path class="cls-1" d="M128.06,73.26a9,9,0,0,0-1.51-3.08,2.4,2.4,0,0,1-.09-2.67c.42-1,1.53-1.5,1.81-2.63.64-2.57,1.39-3.14,3.95-3.32A17.9,17.9,0,0,0,134,61.4a6.2,6.2,0,0,0,5.2-6.42c0-2.54,0-5.09-.08-7.61-.06-1.92-.23-4.08-2.31-5.5a7.2,7.2,0,0,0-5-1.53c-1.86.22-3.11-.32-3.8-2.2a9.24,9.24,0,0,0-1.8-2.93,2.66,2.66,0,0,1-.14-3.86,6.83,6.83,0,0,0,.52-1A6,6,0,0,0,125,22.57a38.09,38.09,0,0,0-9.69-5.31c-2.25-.83-5.66-.06-6.5,1.92-1.46,3.44-3.77,3.95-7.19,4-2.76.05-4.31-.58-5.25-3a3.13,3.13,0,0,0-.15-.32c-.9-1.47-4-3.11-5.52-2.69-4.45,1.23-8,4.15-11.67,6.72-.14.1-.2.3-.3.45a6.27,6.27,0,0,0,0,7.62,3.68,3.68,0,0,1,0,4.65,15.43,15.43,0,0,0-1.49,2.7,3.23,3.23,0,0,1-3.46,2.19c-2.36,0-4.86.24-6.13,3.08a7.09,7.09,0,0,0-1.07,3.92c-.15,2,.07,3.9,0,5.85-.19,4,1.18,6.6,4.59,8a10.43,10.43,0,0,0,4.59.53c.91-.05,1.14.33,1.49.93,1,1.64,1.39,3.58,2.68,5A1.63,1.63,0,0,1,80,71.15a9.46,9.46,0,0,0-.79,1.43,6.13,6.13,0,0,0,2.26,8.36c2.66,1.58,5.4,3,8.12,4.49a6.21,6.21,0,0,0,5.1.1c2.13-.69,2.84-2.53,3.84-4.18.31-.51.32-1.27,1.32-1.22a16.3,16.3,0,0,0,4.31-.19c2.27-.5,3.33.42,4.69,2.22,2.82,3.71,4.9,4.45,8.72,2.69a61.09,61.09,0,0,0,8.1-4.85C128.09,78.38,128.79,76.08,128.06,73.26ZM95.27,64.08c-7.21-4.43-8.73-13.36-5-20.11,3.57-6.43,12.7-9.19,19.72-5.33,6.61,3.63,10,13,5.63,20C112.06,66.3,101.55,67.94,95.27,64.08Z"/></g></g></svg>